<?xml version="1.0" encoding="UTF-8"?>
<svg width="101px" height="65px" viewBox="0 0 101 65" version="1.1" xmlns="http://www.w3.org/2000/svg" xmlns:xlink="http://www.w3.org/1999/xlink">
    <!-- Generator: Sketch 51.3 (57544) - http://www.bohemiancoding.com/sketch -->
    <title>Group 7</title>
    <desc>Created with Sketch.</desc>
    <defs></defs>
    <g id="Page-1" stroke="none" stroke-width="1" fill="none" fill-rule="evenodd">
        <g id="V0.5-4/17" transform="translate(-42.000000, -45.000000)">
            <g id="Group-7" transform="translate(42.000000, 45.000000)">
                <g id="WIKIART" transform="translate(13.000000, 0.000000)">
                    <polygon id="Shape" fill="#1B1C37" points="47.9783 35.8057 59.9512 23.9283 47.9783 12.0514 36.0054 23.9283"></polygon>
                    <polygon id="Shape" fill="#E72124" points="36.0056 23.9287 47.9785 12.0519 36.0056 0.174471 24.0327 12.0519"></polygon>
                    <polygon id="Shape" fill="#E66A3E" points="36.0054 23.9283 24.0325 12.0514 12.0596 23.9283 24.0325 35.8057"></polygon>
                    <polygon id="Shape" fill="#FFCE32" points="59.9514 23.9287 71.9243 12.0519 59.9514 0.174471 47.9785 12.0519"></polygon>
                    <polygon id="Shape" fill="#1086C9" points="12.0598 23.9287 24.0327 12.0519 12.0598 0.174471 0.0869 12.0519"></polygon>
                </g>
                <path d="M21.6505723,47.381457 C22.7226997,47.7629139 23.2587634,48.2715232 23.2587634,48.9072848 C23.2587634,49.1139073 23.162752,49.5033113 22.9707292,50.0754967 L18.3621816,63.3072848 C18.3301778,63.418543 18.2741712,63.5536424 18.1941617,63.7125828 C18.1141522,63.8715232 17.8981265,64.0860927 17.5460847,64.3562914 C17.2100448,64.610596 16.8019963,64.7377483 16.3219392,64.7377483 C15.8578841,64.7377483 15.4498356,64.610596 15.0977938,64.3562914 C14.7617539,64.0860927 14.5377273,63.8238411 14.4257139,63.5695364 L11.6173803,55.3443709 C9.84116925,60.5576159 8.93706183,63.2119205 8.90505803,63.3072848 C8.87305422,63.402649 8.80104567,63.5377483 8.68903236,63.7125828 C8.57701905,63.8874172 8.44900384,64.0463576 8.30498673,64.189404 C7.936943,64.5549669 7.49689072,64.7377483 6.98482988,64.7377483 C6.47276904,64.7377483 6.04871866,64.618543 5.71267873,64.3801325 C5.39264071,64.1417219 5.17661504,63.9033113 5.06460173,63.6649007 L4.89658177,63.3072848 L0.26403137,50.0754967 C0.0880104567,49.5509934 0,49.1615894 0,48.9072848 C0,48.2715232 0.536063691,47.7708609 1.60819107,47.405298 C2.07224621,47.2463576 2.48829564,47.1668874 2.85633937,47.1668874 C3.240385,47.1668874 3.52841922,47.2940397 3.72044203,47.5483444 C3.92846675,47.802649 4.11248861,48.192053 4.27250762,48.7165563 L6.91282133,56.6794702 L9.52913217,48.8357616 C9.75315879,48.1682119 10.1612073,47.7072848 10.7532776,47.4529801 C11.009308,47.3417219 11.337347,47.2860927 11.7373945,47.2860927 C12.153444,47.2860927 12.5374896,47.4211921 12.8895314,47.6913907 C13.2415733,47.9456954 13.4655999,48.2 13.5616113,48.4543046 L16.3219392,56.7271523 L18.9622529,48.7165563 C19.0902682,48.3509934 19.1942805,48.0807947 19.27429,47.9059603 C19.3542995,47.7311258 19.4983166,47.5642384 19.7063413,47.405298 C19.930368,47.2304636 20.2024003,47.1430464 20.5224383,47.1430464 C20.8424763,47.1430464 21.218521,47.2225166 21.6505723,47.381457 Z M24.5795203,49.384106 C24.5795203,49.018543 24.5875213,48.7483444 24.6035232,48.5735099 C24.635527,48.3827815 24.7155365,48.1682119 24.8435517,47.9298013 C25.0675783,47.5006623 25.6916525,47.2860927 26.7157742,47.2860927 C27.8359072,47.2860927 28.4999861,47.5801325 28.7080109,48.1682119 C28.7880204,48.4384106 28.8280251,48.8516556 28.8280251,49.407947 L28.8280251,62.6635762 C28.8280251,63.0450331 28.8120232,63.3231788 28.7800194,63.4980132 C28.7640175,63.6728477 28.692009,63.8794702 28.5639937,64.1178808 C28.3399671,64.5470199 27.715893,64.7615894 26.6917713,64.7615894 C25.5716382,64.7615894 24.9155603,64.4596026 24.7235374,63.8556291 C24.627526,63.6013245 24.5795203,63.1960265 24.5795203,62.6397351 L24.5795203,49.384106 Z M38.2811483,55.9880795 C40.7294391,58.3245033 42.4656454,60.0807947 43.4897671,61.2569536 C44.0178298,61.8450331 44.2818612,62.3456954 44.2818612,62.7589404 C44.2818612,63.1562914 43.9618232,63.6331126 43.3217471,64.189404 C42.6816711,64.7298013 42.1536083,65 41.7375589,65 C41.3375114,65 40.8494534,64.6662252 40.273385,63.9986755 L34.9927576,58.0145695 L34.9927576,62.6635762 C34.9927576,63.0450331 34.9767557,63.3231788 34.9447519,63.4980132 C34.92875,63.6728477 34.8567414,63.8794702 34.7287262,64.1178808 C34.5046996,64.5470199 33.8806254,64.7615894 32.8565037,64.7615894 C31.7363707,64.7615894 31.0802927,64.4596026 30.8882699,63.8556291 C30.7922585,63.6013245 30.7442528,63.1960265 30.7442528,62.6397351 L30.7442528,49.384106 C30.7442528,49.018543 30.7522537,48.7483444 30.7682556,48.5735099 C30.8002594,48.3827815 30.8802689,48.1682119 31.0082842,47.9298013 C31.2323108,47.5006623 31.8563849,47.2860927 32.8805066,47.2860927 C34.0006397,47.2860927 34.6647186,47.5801325 34.8727433,48.1682119 C34.9527528,48.4384106 34.9927576,48.8516556 34.9927576,49.407947 L34.9927576,53.9615894 C37.1690161,51.5298013 38.9292253,49.5350993 40.273385,47.9774834 C40.8334515,47.3258278 41.3215095,47 41.7375589,47 C42.1536083,47 42.6816711,47.2781457 43.3217471,47.8344371 C43.9618232,48.3748344 44.2818612,48.8516556 44.2818612,49.2649007 C44.2818612,49.6622517 44.0418327,50.1390728 43.5617757,50.6953642 C42.6336654,51.7602649 41.1934943,53.2225166 39.2412623,55.0821192 L38.2811483,55.9880795 Z M46.0742742,49.384106 C46.0742742,49.018543 46.0822751,48.7483444 46.098277,48.5735099 C46.1302808,48.3827815 46.2102903,48.1682119 46.3383055,47.9298013 C46.5623322,47.5006623 47.1864063,47.2860927 48.210528,47.2860927 C49.3306611,47.2860927 49.99474,47.5801325 50.2027647,48.1682119 C50.2827742,48.4384106 50.3227789,48.8516556 50.3227789,49.407947 L50.3227789,62.6635762 C50.3227789,63.0450331 50.306777,63.3231788 50.2747732,63.4980132 C50.2587713,63.6728477 50.1867628,63.8794702 50.0587476,64.1178808 C49.834721,64.5470199 49.2106468,64.7615894 48.1865251,64.7615894 C47.066392,64.7615894 46.4103141,64.4596026 46.2182913,63.8556291 C46.1222799,63.6013245 46.0742742,63.1960265 46.0742742,62.6397351 L46.0742742,49.384106 Z M62.3922129,48.5258278 L68.8729829,61.8291391 C69.1450152,62.3695364 69.2810314,62.7748344 69.2810314,63.0450331 C69.2810314,63.6172185 68.8169763,64.1337748 67.888866,64.594702 C67.3448014,64.8649007 66.91275,65 66.592712,65 C66.2886759,65 66.0326455,64.9284768 65.8246207,64.7854305 C65.6325979,64.6423841 65.4885808,64.4913907 65.3925694,64.3324503 C65.3125599,64.1735099 65.1925456,63.9350993 65.0325266,63.6172185 L63.7843783,61.0423841 L57.1355884,61.0423841 L55.8874401,63.6172185 C55.7274211,63.9350993 55.5994059,64.1655629 55.5033945,64.3086093 C55.423385,64.4516556 55.2793678,64.602649 55.0713431,64.7615894 C54.8793203,64.9046358 54.6232899,64.9761589 54.3032519,64.9761589 C53.9992157,64.9761589 53.5751654,64.8410596 53.0311007,64.5708609 C52.1029905,64.1258278 51.6389353,63.6172185 51.6389353,63.0450331 C51.6389353,62.7748344 51.7749515,62.3695364 52.0469838,61.8291391 L58.5277538,48.5019868 C58.7037747,48.1364238 58.9678061,47.8423841 59.3198479,47.6198675 C59.6878916,47.397351 60.0719373,47.2860927 60.4719848,47.2860927 C61.3360875,47.2860927 61.9761635,47.6993377 62.3922129,48.5258278 Z M60.4479819,54.2476821 L58.8637937,57.5139073 L62.056173,57.5139073 L60.4479819,54.2476821 Z M84.0583871,61.805298 C84.2984157,62.3774834 84.4184299,62.7907285 84.4184299,63.0450331 C84.4184299,63.6490066 83.922371,64.1576159 82.9302531,64.5708609 C82.4181923,64.7933775 82.0021428,64.9046358 81.6821048,64.9046358 C81.3780687,64.9046358 81.1220383,64.8331126 80.9140135,64.6900662 C80.7219907,64.5311258 80.5779736,64.3721854 80.4819622,64.213245 C80.3219432,63.9112583 79.6978691,62.4728477 78.6097398,59.8980132 L77.8656514,59.9456954 L74.841292,59.9456954 L74.841292,62.6397351 C74.841292,63.005298 74.8252901,63.2834437 74.7932863,63.4741722 C74.7772844,63.6490066 74.7052759,63.8556291 74.5772607,64.0940397 C74.353234,64.5231788 73.7291599,64.7377483 72.7050382,64.7377483 C71.5849051,64.7377483 70.9288272,64.4437086 70.7368044,63.8556291 C70.640793,63.5854305 70.5927873,63.1721854 70.5927873,62.615894 L70.5927873,49.384106 C70.5927873,49.018543 70.6007882,48.7483444 70.6167901,48.5735099 C70.6487939,48.3827815 70.7288034,48.1682119 70.8568186,47.9298013 C71.0808452,47.5006623 71.7049194,47.2860927 72.7290411,47.2860927 L77.9136571,47.2860927 C79.3218244,47.2860927 80.6899869,47.794702 82.0181447,48.8119205 C82.6582208,49.3046358 83.1862835,49.9721854 83.602333,50.8145695 C84.0183824,51.6569536 84.2264071,52.594702 84.2264071,53.6278146 C84.2264071,55.4238411 83.6263358,56.9019868 82.4261932,58.0622517 C82.778235,58.9046358 83.3222997,60.1523179 84.0583871,61.805298 Z M74.841292,55.7258278 L77.9136571,55.7258278 C78.3777122,55.7258278 78.8417673,55.5509934 79.3058225,55.2013245 C79.7698776,54.8516556 80.0019052,54.3271523 80.0019052,53.6278146 C80.0019052,52.9284768 79.7698776,52.4039735 79.3058225,52.0543046 C78.8417673,51.6887417 78.3617103,51.5059603 77.8656514,51.5059603 L74.841292,51.5059603 L74.841292,55.7258278 Z M85.9263091,47.2622517 L99.2718947,47.2622517 C99.7838555,47.2622517 100.1599,47.3258278 100.399929,47.4529801 C100.639957,47.5642384 100.799976,47.7470199 100.879986,48.0013245 C100.959995,48.2556291 101,48.589404 101,49.002649 C101,49.415894 100.959995,49.7496689 100.879986,50.0039735 C100.799976,50.2423841 100.66396,50.4092715 100.471937,50.5046358 C100.183903,50.6476821 99.7758546,50.7192053 99.2478918,50.7192053 L94.6633471,50.7192053 L94.6633471,62.7112583 C94.6633471,63.0768212 94.6473452,63.3470199 94.6153414,63.5218543 C94.5993395,63.6966887 94.527331,63.9033113 94.3993158,64.1417219 C94.2873025,64.3642384 94.0792777,64.5231788 93.7752416,64.618543 C93.4712055,64.7139073 93.071158,64.7615894 92.575099,64.7615894 C92.0790401,64.7615894 91.6789926,64.7139073 91.3749564,64.618543 C91.0869222,64.5231788 90.8788975,64.3642384 90.7508823,64.1417219 C90.638869,63.9033113 90.5668604,63.6966887 90.5348566,63.5218543 C90.5188547,63.3311258 90.5108538,63.0529801 90.5108538,62.6874172 L90.5108538,50.7192053 L85.9023062,50.7192053 C85.3902454,50.7192053 85.0142007,50.6635762 84.7741722,50.5523179 C84.5341437,50.4251656 84.3741246,50.2344371 84.2941151,49.9801325 C84.2141056,49.7258278 84.1741009,49.392053 84.1741009,48.9788079 C84.1741009,48.5655629 84.2141056,48.2397351 84.2941151,48.0013245 C84.3741246,47.7470199 84.5101408,47.5721854 84.7021636,47.4768212 C84.9901978,47.3337748 85.3982463,47.2622517 85.9263091,47.2622517 Z" id="Shape" fill="#000000" fill-rule="nonzero"></path>
            </g>
        </g>
    </g>
</svg>